<svg width="180" height="50" viewBox="0 0 180 50" fill="none" xmlns="http://www.w3.org/2000/svg">
<path d="M49.5147 24.7573C49.5147 38.4304 38.4304 49.5147 24.7573 49.5147C11.0842 49.5147 0 38.4304 0 24.7573C0 11.0842 11.0842 0 24.7573 0C38.4304 0 49.5147 11.0842 49.5147 24.7573Z" fill="#070C90"/>
<path d="M29.2301 14.9443V49.5146H21.921V21.882H21.7185L13.8018 26.8447V20.3628L22.3599 14.9443H29.2301Z" fill="white"/>
<path d="M172.584 36.495C170.881 36.495 169.414 36.1312 168.184 35.4035C166.961 34.6682 166.016 33.6367 165.348 32.3088C164.688 30.9734 164.358 29.4092 164.358 27.6161C164.358 25.8456 164.688 24.2852 165.348 22.9348C166.016 21.5844 166.946 20.5303 168.139 19.7726C169.339 19.0148 170.742 18.636 172.348 18.636C173.323 18.636 174.268 18.7973 175.184 19.1199C176.099 19.4425 176.92 19.9489 177.648 20.6391C178.376 21.3293 178.95 22.2258 179.37 23.3286C179.79 24.424 180 25.7556 180 27.3236V28.5164H166.26V25.9957H176.703C176.703 25.1104 176.523 24.3264 176.163 23.6437C175.803 22.9535 175.296 22.4096 174.643 22.012C173.998 21.6144 173.241 21.4156 172.37 21.4156C171.425 21.4156 170.6 21.6481 169.895 22.1133C169.197 22.5709 168.657 23.1711 168.274 23.9138C167.899 24.649 167.711 25.448 167.711 26.3108V28.2801C167.711 29.4354 167.914 30.4182 168.319 31.2285C168.732 32.0387 169.306 32.6576 170.041 33.0853C170.776 33.5054 171.635 33.7155 172.618 33.7155C173.256 33.7155 173.837 33.6254 174.362 33.4454C174.887 33.2578 175.341 32.9802 175.724 32.6126C176.106 32.245 176.399 31.7911 176.602 31.251L179.786 31.8249C179.531 32.7627 179.074 33.5842 178.413 34.2894C177.761 34.9871 176.939 35.531 175.949 35.9211C174.966 36.3037 173.844 36.495 172.584 36.495Z" fill="#070C90"/>
<path d="M154.435 36.495C152.762 36.495 151.322 36.1162 150.114 35.3584C148.914 34.5932 147.991 33.5392 147.346 32.1963C146.701 30.8534 146.378 29.3154 146.378 27.5824C146.378 25.8269 146.708 24.2777 147.368 22.9348C148.028 21.5844 148.959 20.5303 150.159 19.7726C151.359 19.0148 152.774 18.636 154.402 18.636C155.714 18.636 156.885 18.8798 157.913 19.3675C158.94 19.8476 159.769 20.5228 160.4 21.3931C161.037 22.2633 161.416 23.2799 161.536 24.4427H158.261C158.081 23.6325 157.669 22.9348 157.024 22.3496C156.386 21.7644 155.531 21.4718 154.458 21.4718C153.52 21.4718 152.699 21.7194 151.993 22.2145C151.296 22.7022 150.752 23.3999 150.362 24.3077C149.971 25.2079 149.776 26.2732 149.776 27.5036C149.776 28.764 149.968 29.8518 150.35 30.7671C150.733 31.6824 151.273 32.3913 151.971 32.894C152.676 33.3966 153.505 33.6479 154.458 33.6479C155.096 33.6479 155.673 33.5316 156.191 33.2991C156.716 33.059 157.155 32.7177 157.507 32.275C157.868 31.8324 158.119 31.2997 158.261 30.6771H161.536C161.416 31.7949 161.052 32.7927 160.445 33.6704C159.837 34.5482 159.023 35.2384 158.003 35.7411C156.99 36.2437 155.801 36.495 154.435 36.495Z" fill="#070C90"/>
<path d="M134.143 36.5288C133.047 36.5288 132.057 36.3262 131.172 35.9211C130.287 35.5085 129.585 34.9121 129.067 34.1318C128.557 33.3516 128.302 32.3951 128.302 31.2622C128.302 30.2869 128.49 29.4842 128.865 28.854C129.24 28.2238 129.746 27.7249 130.384 27.3573C131.022 26.9897 131.735 26.7121 132.522 26.5246C133.31 26.337 134.113 26.1945 134.93 26.0969C135.966 25.9769 136.806 25.8794 137.451 25.8044C138.096 25.7218 138.565 25.5905 138.858 25.4105C139.15 25.2304 139.297 24.9379 139.297 24.5327V24.454C139.297 23.4712 139.019 22.7097 138.464 22.1695C137.916 21.6294 137.099 21.3593 136.011 21.3593C134.878 21.3593 133.985 21.6106 133.332 22.1133C132.687 22.6084 132.241 23.1598 131.993 23.7675L128.831 23.0473C129.206 21.997 129.754 21.1492 130.474 20.504C131.202 19.8513 132.038 19.3787 132.984 19.0861C133.929 18.786 134.923 18.636 135.966 18.636C136.656 18.636 137.387 18.7185 138.16 18.8836C138.94 19.0411 139.668 19.3337 140.343 19.7613C141.026 20.1889 141.585 20.8004 142.02 21.5956C142.455 22.3833 142.673 23.4074 142.673 24.6678V36.1462H139.387V33.783H139.252C139.034 34.2181 138.708 34.6457 138.273 35.0659C137.838 35.486 137.279 35.8348 136.596 36.1124C135.913 36.39 135.096 36.5288 134.143 36.5288ZM134.874 33.828C135.804 33.828 136.6 33.6442 137.26 33.2766C137.928 32.909 138.434 32.4288 138.779 31.8361C139.132 31.236 139.308 30.5945 139.308 29.9118V27.6837C139.188 27.8037 138.955 27.9162 138.61 28.0213C138.273 28.1188 137.886 28.2051 137.451 28.2801C137.016 28.3476 136.592 28.4114 136.18 28.4714C135.767 28.5239 135.422 28.5689 135.144 28.6064C134.492 28.689 133.895 28.8278 133.355 29.0228C132.822 29.2179 132.395 29.4992 132.072 29.8668C131.757 30.2269 131.599 30.7071 131.599 31.3072C131.599 32.14 131.907 32.7702 132.522 33.1978C133.137 33.6179 133.921 33.828 134.874 33.828Z" fill="#070C90"/>
<path d="M124.586 13.0991V36.1459H121.221V13.0991H124.586Z" fill="#070C90"/>
<path d="M101.663 42.6281V18.8611H104.949V21.6631H105.23C105.425 21.303 105.706 20.8867 106.074 20.414C106.442 19.9414 106.952 19.5287 107.604 19.1761C108.257 18.816 109.12 18.636 110.193 18.636C111.588 18.636 112.833 18.9886 113.929 19.6938C115.024 20.399 115.883 21.4156 116.506 22.7435C117.136 24.0713 117.451 25.6693 117.451 27.5374C117.451 29.4054 117.14 31.0072 116.517 32.3425C115.894 33.6704 115.039 34.6945 113.951 35.4147C112.863 36.1274 111.622 36.4838 110.226 36.4838C109.176 36.4838 108.317 36.3075 107.649 35.9549C106.989 35.6023 106.472 35.1896 106.096 34.717C105.721 34.2444 105.432 33.8242 105.23 33.4566H105.027V42.6281H101.663ZM104.96 27.5036C104.96 28.719 105.136 29.7843 105.489 30.6996C105.841 31.6148 106.351 32.3313 107.019 32.8489C107.687 33.3591 108.505 33.6142 109.472 33.6142C110.478 33.6142 111.318 33.3478 111.993 32.8152C112.668 32.275 113.179 31.5436 113.524 30.6208C113.876 29.698 114.053 28.659 114.053 27.5036C114.053 26.3633 113.88 25.3392 113.535 24.4315C113.197 23.5237 112.687 22.8072 112.004 22.2821C111.329 21.7569 110.485 21.4943 109.472 21.4943C108.497 21.4943 107.672 21.7457 106.997 22.2483C106.329 22.751 105.823 23.4524 105.477 24.3527C105.132 25.2529 104.96 26.3033 104.96 27.5036Z" fill="#070C90"/>
<path d="M82.1266 36.495C80.4236 36.495 78.9569 36.1312 77.7265 35.4035C76.5037 34.6682 75.5584 33.6367 74.8907 32.3088C74.2305 30.9734 73.9004 29.4092 73.9004 27.6161C73.9004 25.8456 74.2305 24.2852 74.8907 22.9348C75.5584 21.5844 76.4887 20.5303 77.6815 19.7726C78.8819 19.0148 80.2848 18.636 81.8903 18.636C82.8655 18.636 83.8108 18.7973 84.7261 19.1199C85.6414 19.4425 86.4629 19.9489 87.1906 20.6391C87.9183 21.3293 88.4922 22.2258 88.9123 23.3286C89.3325 24.424 89.5425 25.7556 89.5425 27.3236V28.5164H75.8022V25.9957H86.2453C86.2453 25.1104 86.0652 24.3264 85.7051 23.6437C85.345 22.9535 84.8386 22.4096 84.1859 22.012C83.5407 21.6144 82.783 21.4156 81.9128 21.4156C80.9675 21.4156 80.1422 21.6481 79.437 22.1133C78.7393 22.5709 78.1992 23.1711 77.8166 23.9138C77.4414 24.649 77.2539 25.448 77.2539 26.3108V28.2801C77.2539 29.4354 77.4564 30.4182 77.8616 31.2285C78.2742 32.0387 78.8481 32.6576 79.5833 33.0853C80.3185 33.5054 81.1775 33.7155 82.1603 33.7155C82.798 33.7155 83.3794 33.6254 83.9046 33.4454C84.4298 33.2578 84.8836 32.9802 85.2663 32.6126C85.6489 32.245 85.9415 31.7911 86.144 31.251L89.3287 31.8249C89.0736 32.7627 88.616 33.5842 87.9558 34.2894C87.3031 34.9871 86.4816 35.531 85.4913 35.9211C84.5085 36.3037 83.387 36.495 82.1266 36.495Z" fill="#070C90"/>
<path d="M59.103 25.8831V36.1462H55.7383V18.8611H58.968V21.6744H59.1818C59.5794 20.7591 60.2021 20.0239 61.0499 19.4687C61.9051 18.9136 62.9817 18.636 64.2796 18.636C65.4574 18.636 66.489 18.8836 67.3742 19.3787C68.2595 19.8664 68.9459 20.5941 69.4336 21.5619C69.9212 22.5296 70.1651 23.7262 70.1651 25.1517V36.1462H66.8003V25.5568C66.8003 24.3039 66.474 23.3249 65.8213 22.6197C65.1686 21.907 64.2721 21.5506 63.1317 21.5506C62.3515 21.5506 61.6575 21.7194 61.0499 22.057C60.4497 22.3946 59.9733 22.8897 59.6207 23.5424C59.2756 24.1876 59.103 24.9679 59.103 25.8831Z" fill="#070C90"/>
<path d="M174.787 14.8544C174.787 15.9482 173.9 16.835 172.806 16.835C171.712 16.835 170.826 15.9482 170.826 14.8544C170.826 13.7605 171.712 12.8738 172.806 12.8738C173.9 12.8738 174.787 13.7605 174.787 14.8544Z" fill="#070C90"/>
</svg>
