<svg width="24" height="24" viewBox="0 0 24 24" fill="none" xmlns="http://www.w3.org/2000/svg">
<g clip-path="url(#clip0_370_204)">
<path d="M17.6129 15.5159C19.0653 13.5339 19.7159 11.0766 19.4343 8.63563C19.1528 6.19462 17.96 3.94991 16.0945 2.3506C14.2291 0.751288 11.8285 -0.0846881 9.37314 0.00992167C6.91777 0.104531 4.58866 1.12275 2.85178 2.86087C1.11491 4.59899 0.0983577 6.92882 0.00550496 9.38426C-0.0873478 11.8397 0.750346 14.2396 2.35099 16.104C3.95164 17.9683 6.1972 19.1595 8.63841 19.4393C11.0796 19.7191 13.5365 19.0668 15.5174 17.6129H15.5159C15.5599 17.6729 15.6089 17.7304 15.6629 17.7854L21.4379 23.5604C21.7191 23.8419 22.1007 24.0001 22.4986 24.0002C22.8965 24.0003 23.2782 23.8424 23.5596 23.5612C23.8411 23.2799 23.9993 22.8983 23.9994 22.5004C23.9996 22.1025 23.8416 21.7209 23.5604 21.4394L17.7854 15.6644C17.7318 15.6101 17.6741 15.5614 17.6129 15.5159ZM17.9999 9.74991C17.9999 10.8333 17.7865 11.9061 17.3719 12.907C16.9573 13.908 16.3496 14.8175 15.5835 15.5835C14.8174 16.3496 13.908 16.9573 12.907 17.3719C11.9061 17.7865 10.8333 17.9999 9.74988 17.9999C8.66648 17.9999 7.59368 17.7865 6.59274 17.3719C5.59181 16.9573 4.68233 16.3496 3.91625 15.5835C3.15017 14.8175 2.54248 13.908 2.12788 12.907C1.71327 11.9061 1.49988 10.8333 1.49988 9.74991C1.49988 7.56187 2.36908 5.46345 3.91625 3.91628C5.46343 2.3691 7.56185 1.49991 9.74988 1.49991C11.9379 1.49991 14.0363 2.3691 15.5835 3.91628C17.1307 5.46345 17.9999 7.56187 17.9999 9.74991Z" fill="black"/>
</g>
<defs>
<clipPath id="clip0_370_204">
<rect width="24" height="24" fill="white"/>
</clipPath>
</defs>
</svg>
